<svg xmlns="http://www.w3.org/2000/svg" viewBox="0 0 779.61 1094.08"><defs><style>.cls-1{fill:#fff}</style></defs><g id="Camada_1" data-name="Camada 1"><path class="cls-1" d="M835.63 1114.17c-39.74-40.36-89.14-61.34-143.85-71.74-9.9-1.88-16.51-.42-14.4 11.92a10.92 10.92 0 0 1 0 1.9c0 20.3-4.79 42.15 1.18 60.51 6.88 21.16 34.26 15.13 51.47 24.31 69.69 37.16 108.49 93.5 112.3 172.78 1 20.8-10.77 35.2-28.12 36.59-17.53 1.41-31.07-12.55-33-34-6.89-78.32-54.69-125.6-133.51-132-20.73-1.7-31.79-11.7-32.13-32.57q-1.17-71.36-.23-142.75c.28-21.26 14.69-32.73 39-31.84 84.26 3.11 158.45 32 221.48 88.35 59.95 53.64 93.91 121.61 109.59 199.57-3.68 18.08 3.08 25.41 22 23.77 16.36-1.42 32.93-.65 49.4-.33 8.28.16 13.48-1.3 12.19-11.38-2.64-20.55-3.33-41.44-12-60.79-19.13-85.88-63.92-156.65-129.09-214.59C859 940.58 778.15 905.49 686 896.91c-16-1.49-32.68-2.85-38.17-22-5.09-17.77 2.16-31.38 14.9-44.06Q819.23 675 975.12 518.56c23.28-23.29 37.27-22.79 60.77.73Q1204 687.64 1372.67 855.48c15.64 15.5 22.09 31.45 21.93 53.63-.94 133.28-.44 266.57-.46 399.85 0 31.24-9.84 41.24-40.73 41.32-34.94.1-69.87.25-104.81 0-23.53-.19-36.88-12-36.71-31.66.17-18.46 13.7-30.06 36.22-30.33 23.5-.28 47-.45 70.5.15 10.58.27 14.24-3.1 14.22-14q-.42-179 .05-357.94c0-8.88-2.61-15.47-9-21.84q-154.44-153.81-308.4-308.11c-6.6-6.61-11-10.45-19.63-1.75q-124.17 124.89-249 249.12c-1.68 1.68-2.75 4-4.11 6 6.76 7.17 15.68 6.44 23.31 8.4 207.62 53.46 354.82 233.06 365.61 446.6.35 7 .56 14 .42 20.93-.43 22.64-11.1 34.06-33.87 34.31q-68.6.75-137.19.1c-21.92-.18-31.48-10.74-35.08-36.43 3.15-27-3.31-52.8-11.36-78-15.21-47.54-39.04-89.93-78.95-121.66ZM704.3 1306c-.28 23.93-22 45.25-45.22 44.42-23.09-.83-43.93-21.8-43.89-44.16 0-24.34 20.42-44.83 44.68-45A44.56 44.56 0 0 1 704.3 1306Z" transform="translate(-615 -501.37)"/><path class="cls-1" d="M960.2 717.36c29.5.08 29.5.08 29.44 30.31-.07 31.49-.07 31.49-32.1 31.71-30.27.21-30.27.21-30.22-29.33.04-32.78.04-32.78 32.88-32.69ZM957.44 871.84c-30.09.06-30.09.06-30.19-29.24-.1-32.24-.1-32.24 32.92-32.2 29.69 0 29.69 0 29.5 30.16-.19 31.22-.19 31.22-32.23 31.28ZM1052.36 810.35c29.7 0 29.7 0 29.78 29.84.09 31.54.09 31.54-32 31.5-29.89-.05-29.89-.05-29.62-30.14.28-31.23.28-31.23 31.84-31.2ZM1020.61 747.29c0-29.87 0-29.87 29.31-30 32.2-.1 32.2-.1 32.1 31-.1 30.93-.1 30.93-30.38 31-31 .18-31 .18-31.03-32Z" transform="translate(-615 -501.37)"/></g><text transform="matrix(1.12 0 0 1 54.86 1054.06)" style="font-size:188px;font-family:Colonial;fill:#fff" id="Camada_3" data-name="Camada 3">Ki<tspan x="161.47" y="0" style="letter-spacing:-.05em">l</tspan><tspan x="207.19" y="0" style="letter-spacing:-.04em">o</tspan><tspan x="293.75" y="0" style="letter-spacing:-.05em">m</tspan><tspan x="442.46" y="0">bo</tspan></text></svg>